<?xml version="1.0" encoding="UTF-8"?>
<svg id="Layer_1" xmlns="http://www.w3.org/2000/svg" viewBox="0 0 1920 1920">
  <defs>
    <style>
      .cls-1 {
        fill: #fff;
      }

      .cls-2 {
        fill: #362040;
      }
    </style>
  </defs>
  <path class="cls-1" d="M1808.09,960c0,271.6-127.67,513.38-326.28,668.6-115.65,90.39-255.35,151.43-407.9,171.91-37.26,5-75.28,7.58-113.91,7.58-1.89,0-3.78-.01-5.67-.02-194.44-1.27-373.34-67.98-515.8-179.19-198.8-155.21-326.62-397.12-326.62-668.88,0-468.39,379.7-848.09,848.09-848.09s848.09,379.7,848.09,848.09Z"/>
  <g>
    <path class="cls-2" d="M1695.52,920.04c-11.16,26.86-31.36,35.84-60.11,35.81-450.82-.54-901.64-.4-1352.45-.29-16.17,0-33.06.1-43.33-13.79-7.24-9.79-13.75-22.74-14.15-34.49-1.59-46.85-.9-93.78-.57-140.68.21-28.43,19.33-47.31,47.82-48.27,4.78-.16,9.57-.07,14.36-.07,448.9,0,897.81.17,1346.71-.4,29.04-.04,50.15,8.07,61.72,35.59v166.61Z"/>
    <path class="cls-2" d="M1599.38,987.59c-4.01,21.98-7.65,42.98-11.41,63.98-35.42,192.38-70.84,384.66-106.16,577.03-115.65,90.39-255.35,151.43-407.9,171.91-37.26,5-75.28,7.58-113.91,7.58-1.89,0-3.78-.01-5.67-.02-194.44-1.27-373.34-67.98-515.8-179.19-29.63-161.68-59.4-323.34-89.17-484.93-8.87-47.58-17.61-95.05-26.22-142.52-.73-4.12-.73-8.37-1.22-13.84h1277.46Z"/>
  </g>
</svg>