<?xml version="1.0" encoding="UTF-8"?>
<svg id="Layer_1" xmlns="http://www.w3.org/2000/svg" viewBox="0 0 1920 1920">
  <defs>
    <style>
      .cls-1 {
        fill: #fff;
      }

      .cls-2 {
        fill: #362040;
      }
    </style>
  </defs>
  <path class="cls-1" d="M1808.09,960c0,429.76-319.66,784.86-734.18,840.51-37.26,5-75.28,7.58-113.91,7.58-1.89,0-3.78-.01-5.67-.02-465.78-3.05-842.42-381.57-842.42-848.07S491.61,111.91,960,111.91s848.09,379.7,848.09,848.09Z"/>
  <path class="cls-2" d="M1628.26,781.72c-1.12,15.06-2.12,29.78-3.46,44.62-9.38,102.48-30.69,201.9-74.43,295.33-26.56,56.73-61.94,106.9-113.38,143.59-49.32,35.1-104.56,49.03-166.27,45.86,10.6-104.98,64.28-187.98,123.75-269.4-5.46,4.19-11.15,8.04-16.4,12.46-66.17,54.92-121.3,120.26-166.49,193.3-38.95,63.3-75.77,128.3-108.02,195.34-18.97,39.63-29.02,84.14-39.06,127.51-4.35,18.91,2.12,40.2,2.9,60.47,2.32,56.53,4.81,113.16,6.51,169.71-37.26,5-75.28,7.58-113.91,7.58-1.89,0-3.78-.01-5.67-.02.44-87.76-5.44-175.19-16.37-262.2-15.4-123.21-47.99-241.55-100.88-353.99-54.46-115.85-119.4-225.13-194.17-328.51-1-1.48-2.23-2.72-4.35-5.21,14.62,38.38,30.13,74.85,42.41,112.33,12.38,37.71,23.54,75.99,31.58,114.83,8.14,39.18,11.94,79.38,17.85,120.6-30.8,2.38-57.92.11-84.7-5.78-89.49-19.47-155.22-73.6-206.44-147.89-58.03-84.02-90.28-179.03-113.82-277.67-16.96-71.11-27.45-143.25-33.37-216.17-.67-7.48-.11-14.95-.11-24.46,13.06.9,26.34,1.36,39.62,2.6,124.53,11.33,246.05,35.45,360.77,87.65,77.11,35.11,145.85,81.87,194.83,153.89,32.37,47.68,50,100.68,54.13,158.54,3.79,53.11-3.69,104.86-17.19,156.16-1.56,6.12-1.56,14.61,1.56,19.7,40.29,66.36,68.63,138.04,90.28,212.56.67,2.49,1.56,4.98,3.24,10.3,3.79-5.77,6.13-10.19,9.03-14.04,23.33-31.37,46.31-63.07,70.42-93.76,6.14-7.82,8.7-13.82,6.36-23.56-10.38-42.58-13.17-85.61-5.13-128.98,13.16-70.32,52.33-123.43,107.46-165.67,58.47-44.62,125.2-71,194.83-91.04,66.62-19.14,134.47-30.35,203.32-36.47,6.81-.56,13.73-.11,22.77-.11Z"/>
</svg>