<?xml version="1.0" encoding="UTF-8"?>
<svg id="Layer_1" xmlns="http://www.w3.org/2000/svg" viewBox="0 0 1920 1920">
  <defs>
    <style>
      .cls-1 {
        fill: #2f2e41;
      }

      .cls-2 {
        fill: #fff;
      }

      .cls-3 {
        fill: #ffb6b6;
      }

      .cls-4 {
        fill: #3f3d56;
      }

      .cls-5 {
        fill: #fcb4b4;
      }

      .cls-6 {
        fill: #92ca9f;
      }

      .cls-7 {
        fill: #00c66a;
      }

      .cls-8 {
        isolation: isolate;
        opacity: .1;
      }
    </style>
  </defs>
  <path class="cls-7" d="M1498.76,904.76c54.47,35.12,105.5,82.15,153.29,140.15v88.69c-23.32-7.94-112.34-40.84-147.49-92.88-40.62-60.14-47.85-151.43-14.02-174.29,8.81-5.94,19.52-6.68,31.26-3.42,37.04,26.63,72.46,58.94,106.29,96.57,11.99,18.42,19.41,41.88,23.95,65.59v1.12c-43.77-60.93-95.23-100.46-153.29-121.54Z"/>
  <path class="cls-7" d="M1496.02,360.02c54.47,35.12,105.5,82.15,153.29,140.15v20.26c-4.57-1.56-11.63-4.05-20.34-7.47-39.09-46.34-83.65-77.55-132.95-95.45,34.49,22.23,67.61,49.25,99.39,80.81-33.61-16.18-72.92-40.16-93.59-70.76-2.19-3.23-4.27-6.49-6.24-9.77-34.76-57.7-37.06-120.99-5.04-142.62,33.83-22.86,93.15,9.53,133.78,69.64,23.49,34.79,30.08,88.77,31.42,128.05-2.16,2.85-4.3,5.75-6.43,8.7-43.77-60.93-95.23-100.46-153.29-121.54Z"/>
  <path class="cls-7" d="M1806.11,683.59v.03c-3.89,10.76-8.76,21.63-14.56,32.33-8.62,15.93-21.87,30.71-36.87,43.93-16.07,14.18-34.19,26.55-50.86,36.6-23.27,14.04-43.72,23.57-51.76,27.18v-8.62c46.23-55.02,95.4-99.86,147.82-133.64-55.68,20.2-105.25,57.43-147.82,114.18v-38.02c46.23-55.02,95.4-99.86,147.82-133.64-55.68,20.2-105.25,57.43-147.82,114.18v-38.02c45.63-54.28,94.08-98.65,145.74-132.27,24.2,19.46,26.31,66.41,8.32,115.79h0Z"/>
  <circle class="cls-2" cx="616.72" cy="516.94" r="393.32"/>
  <path id="uuid-9ac3c440-2c29-483e-b5ea-f157a67fda2d-327" class="cls-5" d="M1683.52,1305.16c33.08,27.87,45.52,67.53,27.78,88.58-17.74,21.05-58.93,15.52-92.02-12.36-13.37-10.96-23.92-24.96-30.77-40.83l-138.68-119.85,57.63-63.88,130.59,124.93c16.81,4.06,32.4,12.09,45.47,23.41h0Z"/>
  <polygon class="cls-1" points="1571.54 1216.49 1402.01 998.8 1241.44 704.93 1237.28 1112.5 1477.96 1310.18 1571.54 1216.49"/>
  <polygon class="cls-5" points="834.09 617.29 872.92 440.72 1002.73 446.96 1036.05 575.06 834.09 617.29"/>
  <polygon class="cls-8" points="834.09 617.29 872.92 440.72 1002.73 446.96 1036.05 575.06 834.09 617.29"/>
  <circle class="cls-5" cx="934.61" cy="342.77" r="145.32"/>
  <path class="cls-1" d="M869.61,398.9h0s-14.66-.14-45.16-5.81c-30.49-5.67,22.45,65.59,22.45,65.59-143.5-59.92-97.58-211.91-97.58-211.91-145.64-27.85-84.63-157.32-84.63-157.32,0,0,48.01-92.65,195.59-86.75,147.58,5.9,77.86,151.45,77.86,151.45,96.15.18,106.97,86.84,106.97,86.84,0,0-34.66,4.33-97.66,20.31-62.99,15.99-77.85,137.61-77.85,137.61h0s0,0,0,0h0Z"/>
  <path class="cls-3" d="M863.85,561.68l-6.56-12.78s-116.78,13.54-135.94,31.4c-19.16,17.87-62.96,97.25-62.96,97.25l95.81,82.12,109.66-198h0Z"/>
  <path class="cls-3" d="M1008.77,558.58s87.6-23.36,136.87,25.91c49.27,49.27,106.76,139.61,106.76,139.61l-2.74,71.17-136.87-65.98-104.02-170.71h0Z"/>
  <path class="cls-1" d="M1031.1,548.9s114.54-41.06,188.45,46.54c73.91,87.6,95.81,364.07,95.81,364.07,0,0,166.98,511.89,125.92,517.36-41.06,5.47-291.64,20.61-291.64,20.61l-86.12-557.13-38.32-391.44h5.91Z"/>
  <path class="cls-5" d="M767.88,1041.63l-27.37,98.55,372.28,27.37s-13.69-82.38,0-112.36l-344.91-13.56Z"/>
  <polygon class="cls-5" points="978.66 1682.17 995.08 1917.58 1201.8 1912.11 1194.91 1673.96 978.66 1682.17"/>
  <polygon class="cls-5" points="656.13 1658.88 595.42 1914.85 811.84 1913.38 866.97 1704.16 656.13 1658.88"/>
  <path class="cls-6" d="M1025.19,548.9h-167.91l-135.94,180.67,30.11,369.54s68.43-19.16,164.24-19.16h205.3s-30.11-95.81,8.21-134.13c38.32-38.32,10.95-216.25,10.95-216.25l-114.97-180.67h0Z"/>
  <path class="cls-1" d="M726.82,1110.06l-153.29,555.69s225.72,90.7,361.96,64.51c136.24-26.19,322.38-34.4,322.38-34.4l-131.39-563.9-399.66-21.9h0Z"/>
  <path id="uuid-73c6c48b-3ad6-4bf4-ae9b-2aead64e96c3-328" class="cls-5" d="M1081.3,1313.37c33.08,27.87,45.52,67.53,27.78,88.58-17.74,21.05-58.93,15.52-92.02-12.36-13.37-10.96-23.92-24.96-30.77-40.83l-138.68-119.85,57.63-63.88,130.59,124.93c16.81,4.06,32.4,12.09,45.47,23.41Z"/>
  <polygon class="cls-1" points="996.69 1216.49 827.16 998.8 666.6 704.93 662.43 1112.5 903.12 1310.18 996.69 1216.49"/>
  <path class="cls-1" d="M868.73,548.9s-114.54-41.06-188.45,46.54c-73.91,87.6-95.81,364.07-95.81,364.07,0,0-166.98,511.89-125.92,517.36,41.06,5.47,291.64,20.61,291.64,20.61l86.12-557.13,38.32-391.44h-5.91Z"/>
  <rect class="cls-4" x="1649.31" y="444.88" width="5.47" height="952.6"/>
  <path class="cls-7" d="M132.81,1422.12c54.47,35.12,105.5,82.15,153.29,140.15v88.69c-23.32-7.94-112.34-40.84-147.49-92.88-40.62-60.14-47.85-151.43-14.02-174.29,8.81-5.94,19.52-6.68,31.26-3.42,37.04,26.63,72.46,58.94,106.29,96.57,11.99,18.42,19.41,41.88,23.95,65.59v1.12c-43.77-60.93-95.23-100.46-153.29-121.54Z"/>
  <path class="cls-7" d="M130.07,877.38c54.47,35.12,105.5,82.15,153.29,140.15v20.26c-4.57-1.56-11.63-4.05-20.34-7.47-39.09-46.34-83.65-77.55-132.95-95.45,34.49,22.23,67.61,49.25,99.39,80.81-33.61-16.18-72.92-40.16-93.59-70.76-2.19-3.23-4.27-6.49-6.24-9.77-34.76-57.7-37.06-120.99-5.04-142.62,33.83-22.86,93.15,9.53,133.78,69.64,23.49,34.79,30.08,88.77,31.42,128.05-2.16,2.85-4.3,5.75-6.43,8.7-43.77-60.93-95.23-100.46-153.29-121.54Z"/>
  <path class="cls-7" d="M440.16,1200.96v.03c-3.89,10.76-8.76,21.63-14.56,32.33-8.62,15.93-21.87,30.71-36.87,43.93-16.07,14.18-34.19,26.55-50.86,36.6-23.27,14.04-43.72,23.57-51.76,27.18v-8.62c46.23-55.02,95.4-99.86,147.82-133.64-55.68,20.2-105.25,57.43-147.82,114.18v-38.02c46.23-55.02,95.4-99.86,147.82-133.64-55.68,20.2-105.25,57.43-147.82,114.18v-38.02c45.63-54.28,94.08-98.65,145.74-132.27,24.2,19.46,26.31,66.41,8.32,115.79Z"/>
  <rect class="cls-4" x="283.36" y="962.24" width="5.47" height="952.6"/>
</svg>