<?xml version="1.0" encoding="UTF-8"?>
<svg xmlns="http://www.w3.org/2000/svg" version="1.1" viewBox="0 0 1885 701.7">
  <defs>
    <style>
      .cls-1 {
        fill: #25714f;
      }

      .cls-2 {
        fill: #00c064;
      }

      .cls-3 {
        fill: #fefdff;
      }
    </style>
  </defs>
  <!-- Generator: Adobe Illustrator 28.6.0, SVG Export Plug-In . SVG Version: 1.2.0 Build 709)  -->
  <g>
    <g id="Layer_1">
      
      <path class="cls-2" d="M575.8,298.3c0,122.1-76,226.4-183.3,268.3-2,.8-4,1.5-6.1,2.3-.5.2-.9.3-1.4.5-30.4,10.9-63.1,16.8-97.2,16.8s-18.7-.5-27.9-1.3c-1.9-.2-3.9-.4-5.8-.6-5-.6-10-1.3-14.9-2.1C103.5,559,0,440.7,0,298.3S128.9,10.5,287.9,10.5s287.9,128.9,287.9,287.9Z"/>
      <path class="cls-3" d="M211.7,448s-68.9-143.8-28-239.6c0,0-19.1-131.3,9.3-147.1,0,0,52.6,12.2,95.7,112.8,0,0,86.8,60.5,91.1,150.3,0,0-19.9,120.2-60.6,150-40.6,29.9-107.6-26.5-107.6-26.5h0Z"/>
      <path class="cls-1" d="M402.2,554.4l-9.6,22.9c-2,.8-4,1.6-6.1,2.3-.5.2-.9.3-1.4.5-30.4,11.2-63.1,17.3-97.2,17.3s-18.7-.5-27.9-1.4c-1.9-.2-3.9-.4-5.8-.6-5-.6-10-1.3-14.9-2.2-39.6-42.5-76.1-110.8-84.8-220,0,0,99.9-2.1,128.8,57.2-4.6-38.8-6.6-100,11.3-165.6,0,0,57.8-3.3,82.6,75.1-7.4-55.2-8-141,53.7-166.5,0,0,86.7,57.4-28.7,381h0Z"/>
    </g>
  </g>
</svg>