<?xml version="1.0" encoding="UTF-8"?>
<svg id="Layer_1" xmlns="http://www.w3.org/2000/svg" viewBox="0 0 1920 1920">
  <defs>
    <style>
      .cls-1 {
        fill: #fff;
      }

      .cls-2 {
        fill: #362040;
      }
    </style>
  </defs>
  <path class="cls-1" d="M1808.09,960c0,271.6-127.67,513.38-326.28,668.6-115.65,90.39-255.35,151.43-407.9,171.91-37.26,5-75.28,7.58-113.91,7.58-1.89,0-3.78-.01-5.67-.02-194.44-1.27-373.34-67.98-515.8-179.19-198.8-155.21-326.62-397.12-326.62-668.88,0-468.39,379.7-848.09,848.09-848.09s848.09,379.7,848.09,848.09Z"/>
  <g>
    <path class="cls-2" d="M951.41,1370.63c56.38-74.63,112.11-148.4,170.04-225.08v90.61c2.43.88,3.55,1.66,4.68,1.66,106.53.13,213.08,1.16,319.6-.11,57.89-.69,112.24-14.74,156.44-56.67-1.92,4-3.69,8.09-5.79,12-44.25,82.21-89.48,163.92-132.35,246.85-16.1,31.13-40.56,49.87-71.22,62.34-37.37,15.21-76.72,21.95-116.91,23.62-47.96,1.98-95.93,3.6-143.89,5.42-2.87.11-5.73.54-9.62.93v59.35c-.98.47-1.96.94-2.94,1.41-55.76-73.77-111.51-147.54-168.02-222.31h0Z"/>
    <path class="cls-2" d="M1029.07,766.83c26.72-14.51,52.14-28.3,78.38-42.54-1.75-3.92-3.02-7.32-4.73-10.48-48.04-89.31-95.57-178.9-144.42-267.76-24.46-44.49-55.78-83.38-103.21-105.88-9.39-4.45-19.43-7.54-32.01-12.35h17.04c94.38-.08,188.77.81,283.12-.74,35.98-.59,64.48,12.97,90.59,34.9,31.32,26.29,55.82,58.34,76.61,93.29,23.24,39.06,46.18,78.31,69.28,117.46,2.09,3.55,4.42,6.95,7.25,11.38,17.51-9.35,34.43-18.4,54.02-28.86-1.66,5.43-2.22,8.4-3.44,11.07-35.78,78.46-71.69,156.86-107.3,235.39-3.08,6.81-6.46,9.36-14.2,8.15-87.74-13.68-175.53-27.03-263.3-40.51-.68-.11-1.26-.83-3.68-2.52h0Z"/>
    <path class="cls-2" d="M763.31,1026.36c-27.8-16.82-52.91-32-78.98-47.78-2.83,4.35-5.38,8.03-7.71,11.86-52.07,85.54-104.35,170.95-156.04,256.7-20.58,34.15-36.05,70.71-39.04,110.88-1.54,20.65,1.15,41.6,1.85,60.23-.69-1.08-3.2-4.75-5.45-8.57-47.78-81.23-94.61-163.04-143.75-243.44-19.31-31.6-21.74-63.78-15.53-98.2,7.02-38.86,21.65-75.02,40.63-109.47,24.14-43.82,48.5-87.51,73.43-132.47-17.25-10.51-34.01-20.73-54.17-33.01,15.41-1.87,27.41-3.51,39.46-4.75,75.78-7.82,151.58-15.37,227.32-23.49,10.54-1.13,15.23,1.84,19.2,12,30.71,78.72,62.18,157.14,93.4,235.65,1.38,3.47,2.7,6.97,5.37,13.87h.01Z"/>
    <path class="cls-2" d="M845.79,1523.45c-51.3,0-100.98-.55-150.64.21-28.98.45-55.61-6.95-81.62-18.68-70.39-31.74-90.59-92.91-74.06-163.27,9.49-40.42,31.77-74.92,55.77-108.15,2-2.77,6.82-5.05,10.28-4.99,79.2,1.4,158.39,3.14,237.59,4.89,2.43.06,4.84.83,8.22,1.44-1.86,96.68-3.7,193.03-5.54,288.56Z"/>
    <path class="cls-2" d="M554.43,575.88c2.38-4.23,4.09-7.52,6.02-10.68,26.69-43.85,51.82-88.75,80.58-131.19,27.06-39.94,64.65-67.46,114.04-73.96,44.01-5.78,79.87,13.85,110.62,42.25,31.41,29,50.53,66.9,67.67,105.54,1.25,2.82.79,7.64-.85,10.32-42.56,69.62-85.39,139.07-129.14,210.13-83.14-50.9-165.75-101.47-248.95-152.41h0Z"/>
    <path class="cls-2" d="M1499.64,818.91c29.65,50.84,60.59,99.15,86.54,150,18.67,36.58,23.87,77.83,11.43,118.07-17.83,57.63-63.06,84.91-118.77,94.17-32.02,5.32-65.33,3.01-98.07,3.53-3.66.06-9-2.89-10.83-6.03-40.63-69.81-80.87-139.86-121.15-209.87-.39-.69-.39-1.61-.83-3.67,83.22-48.34,166.76-96.87,251.68-146.21h0Z"/>
  </g>
</svg>