<?xml version="1.0" encoding="UTF-8"?>
<svg id="Layer_1" xmlns="http://www.w3.org/2000/svg" viewBox="0 0 1920 1920">
  <defs>
    <style>
      .cls-1 {
        fill: #362040;
      }
    </style>
  </defs>
  <path class="cls-1" d="M1011.06,405.28c167.83,169.48,332.88,336.16,502.99,507.95-3.36,1.99-11.42,4.83-16.87,10.28-277.98,277.74-556.18,555.26-833.07,834.07-46.67,47-100.02,72.28-165.29,78.36-87.9,8.18-175.58,18.77-263.27,28.97-113.3,13.18-193.82-63.13-182.52-175.95,9.92-98.97,22.53-197.66,34.04-296.47,5.64-48.44,27.67-88.41,62.02-122.63,120.05-119.58,239.74-239.52,359.57-359.32,162.72-162.69,325.46-325.37,488.11-488.12,4.64-4.65,8.47-10.11,14.29-17.15Z"/>
  <path class="cls-1" d="M1107.03,315.74c69.4-70.25,137.98-143.44,210.72-212.23,70.92-67.08,188.65-66.39,259.78,1.16,81.24,77.14,160.58,156.44,237.76,237.65,65.63,69.06,71.92,180.55,7.99,251.56-69.43,77.12-148.41,145.64-221.74,216.47-162.35-162.38-328.51-328.57-494.51-494.6Z"/>
</svg>