<?xml version="1.0" encoding="UTF-8"?>
<svg id="Layer_1" xmlns="http://www.w3.org/2000/svg" viewBox="0 0 1920 1920">
  <defs>
    <style>
      .cls-1 {
        fill: #362040;
      }
    </style>
  </defs>
  <path class="cls-1" d="M80.72,1478.57v-806.99c2.56,1.1,5.36,1.85,7.64,3.36,237.91,158.6,475.77,317.28,713.65,475.92,103.69,69.15,211.15,69.67,314.36.94,235.11-156.56,470.07-313.34,705.11-470.02,5.02-3.34,10.17-6.48,17.44-11.1v14c0,256.37.08,512.74-.22,769.1-.02,14.15-1.69,28.68-5.14,42.39-19,75.38-82.77,122.48-165.45,122.52-234.05.12-468.1.04-702.15.04s-476.11-.09-714.17.08c-46.63.03-87.61-13.68-121.84-46.11-27.23-25.8-40.77-58.6-49.23-94.13Z"/>
  <path class="cls-1" d="M80.72,441.51c2.83-9.8,5.29-19.73,8.54-29.38,22.44-66.63,82.65-109.59,155.67-110.68,33.76-.51,67.53-.1,101.29-.1,440.08,0,880.16.08,1320.24-.11,51.22-.02,95.63,15.28,130.44,53.92,65.62,72.84,53.84,181.73-27.22,236.86-106.87,72.67-214.87,143.67-322.4,215.37-127.98,85.34-255.96,170.7-383.97,256-73.63,49.06-133.17,49.03-206.7.02-225.55-150.35-450.68-301.34-677-450.53-48.28-31.83-87.02-67.98-98.9-126.72,0-14.88,0-29.76,0-44.64Z"/>
</svg>