<?xml version="1.0" encoding="UTF-8"?>
<svg id="Layer_1" xmlns="http://www.w3.org/2000/svg" viewBox="0 0 1920 1920">
  <defs>
    <style>
      .cls-1 {
        fill: #fff;
      }
    </style>
  </defs>
  <path class="cls-1" d="M1449.13,1753.78L165.1,414.54c-57.68-60.16-51.39-152.81,13.98-205.89l68.08-55.29c65.37-53.08,166.04-47.29,223.72,12.86l1284.03,1339.24c57.68,60.16,51.39,152.81-13.98,205.89l-68.08,55.29c-65.37,53.08-166.04,47.29-223.72-12.86Z"/>
  <path class="cls-1" d="M470.87,1753.78L1754.9,414.54c57.68-60.16,51.39-152.81-13.98-205.89l-68.08-55.29c-65.37-53.08-166.04-47.29-223.72,12.86L165.1,1505.46c-57.68,60.16-51.39,152.81,13.98,205.89l68.08,55.29c65.37,53.08,166.04,47.29,223.72-12.86Z"/>
</svg>