<?xml version="1.0" encoding="UTF-8"?>
<svg id="Layer_1" xmlns="http://www.w3.org/2000/svg" viewBox="0 0 1920 1920">
  <defs>
    <style>
      .cls-1 {
        fill: #fff;
      }
    </style>
  </defs>
  <path class="cls-1" d="M1009.14,1888c-49.93-15.84-68.22-51.4-67.66-101.95,1.37-122.53-6.77-244.67-22.18-366.18-20.98-165.37-65.35-324.03-137.36-474.97-74.14-155.41-162.56-301.99-264.33-440.71-1.39-1.89-3.04-3.58-5.91-6.94,19.92,51.46,40.99,100.37,57.73,150.71,16.82,50.56,31.99,101.99,43,154.07,11.12,52.59,16.26,106.45,24.31,161.75-41.92,3.17-78.86.17-115.39-7.68-121.84-26.19-211.31-98.78-281.04-198.45-78.86-112.71-122.81-240.19-154.83-372.51-23.09-95.42-37.45-192.21-45.5-289.98-.82-9.99-.11-20.1-.11-32.77,17.79,1.11,35.9,1.81,53.93,3.42,169.47,15.16,334.94,47.63,491.13,117.64,105,47.07,198.56,109.84,265.19,206.37,44.12,63.92,68.07,135.08,73.66,212.65,5.14,71.37-4.95,140.8-23.35,209.52-2.19,8.17-2.09,19.65,2.09,26.43,54.91,89.11,93.45,185.14,122.9,285.16.99,3.36,2.14,6.67,4.47,13.89,5.06-7.88,8.28-13.69,12.25-18.95,31.75-42.09,63.01-84.59,95.93-125.75,8.31-10.39,11.8-18.54,8.59-31.54-14.13-57.12-17.88-114.88-6.9-173.03,17.81-94.36,71.19-165.63,146.29-222.2,79.49-59.87,170.42-95.32,265.22-122.21,90.57-25.69,183.01-40.72,276.65-48.89,9.33-.81,18.8-.11,31.04-.11-1.55,20.07-2.8,39.93-4.65,59.73-12.83,137.46-41.88,270.92-101.4,396.29-36.13,76.09-84.24,143.35-154.3,192.49-67.2,47.13-142.29,65.8-226.34,61.55,14.38-140.84,87.48-252.09,168.46-361.32-7.48,5.54-15.21,10.77-22.4,16.66-90.05,73.75-165.1,161.36-226.51,259.39-53.14,84.83-103.27,172.1-147.05,262.03-25.87,53.14-39.61,112.89-53.17,170.98-5.92,25.36,2.84,54,3.95,81.19,3.7,90.2,7.65,180.4,10.07,270.64,1.04,38.76-20.24,66.18-56.8,79.62-2.65.97-5.06,2.61-7.58,3.94h-32.1Z"/>
</svg>