<?xml version="1.0" encoding="UTF-8"?>
<svg id="Layer_1" xmlns="http://www.w3.org/2000/svg" viewBox="0 0 1920 1920">
  <defs>
    <style>
      .cls-1 {
        fill: #fff;
      }
    </style>
  </defs>
  <path class="cls-1" d="M1875.14,394.5c-13.87,33.36-38.95,44.52-74.66,44.47-559.94-.68-1119.88-.5-1679.82-.37-20.08,0-41.06.12-53.82-17.13-8.99-12.16-17.08-28.24-17.57-42.84-1.97-58.19-1.12-116.48-.7-174.73.25-35.31,24.01-58.76,59.39-59.96,5.94-.2,11.89-.08,17.83-.08,557.56,0,1115.13.21,1672.69-.5,36.07-.05,62.29,10.02,76.66,44.2v206.93Z"/>
  <path class="cls-1" d="M167.53,478.35h1587.93c-4.54,26.3-8.69,51.67-13.33,76.95-55.67,303.09-111.4,606.17-167.13,909.25-5.8,31.53-12.24,62.97-17.21,94.63-1.89,12.01-6.84,15.41-18.56,15.33-68.37-.48-136.74-.23-205.12-.23-313.92,0-627.84,0-941.77,0h-23.32c-67.09-364.93-134.04-729.07-201.49-1095.91Z"/>
  <path class="cls-1" d="M961.68,1612.68c209.8,0,419.59-.04,629.39.12,10.62,0,21.67.21,31.79,2.98,31.27,8.55,48.68,41.68,40.58,75-12.13,49.91-56.21,86.12-107.85,88.55-5.34.25-10.69.36-16.04.36-385.12.02-770.25-.16-1155.37.22-52.5.05-92.61-19.67-115.61-67.5-6.65-13.83-9.53-30.77-9.41-46.25.19-24.99,21.55-47.02,46.52-51.55,9.27-1.68,18.91-1.84,28.38-1.85,209.2-.1,418.41-.07,627.61-.07Z"/>
</svg>