<?xml version="1.0" encoding="UTF-8"?>
<svg id="Layer_1" xmlns="http://www.w3.org/2000/svg" viewBox="0 0 1920 1920">
  <defs>
    <style>
      .cls-1 {
        fill: #fff;
      }

      .cls-2 {
        fill: #362040;
      }
    </style>
  </defs>
  <path class="cls-1" d="M1850.14,960c0,199.93-65.88,384.44-177.12,533.02-162.44,216.83-421.36,357.12-713.02,357.12s-550-139.96-712.44-356.38c-111.58-148.74-177.7-333.5-177.7-533.76,0-491.59,398.55-890.14,890.14-890.14s890.14,398.55,890.14,890.14Z"/>
  <g>
    <path class="cls-2" d="M1673.02,1493.02c-162.44,216.83-421.36,357.12-713.02,357.12s-550-139.96-712.44-356.38c15.09-20.84,31.67-41.02,49.71-60.55,99.93-108.54,223.81-173.84,369.51-197.14,27.65-4.43,55.63-6.73,83.68-6.65,137.25,0,274.43-.25,411.6.08,139.63.33,265.65,42.74,376.57,127.08,53.08,40.28,97.79,85.81,134.38,136.43Z"/>
    <path class="cls-2" d="M961.23,1059.09c-189.59,0-342.28-153.03-342.83-342.04-.56-191.2,157.93-348.79,352.69-343.52,185.04,5.01,338.47,160.03,333.1,352.87-5.14,184.55-157.92,334-342.96,332.68Z"/>
  </g>
</svg>