<?xml version="1.0" encoding="UTF-8"?>
<svg id="Layer_1" xmlns="http://www.w3.org/2000/svg" viewBox="0 0 1920 1920">
  <defs>
    <style>
      .cls-1 {
        fill: #fff;
      }
    </style>
  </defs>
  <path class="cls-1" d="M281.76,510.36h1354.23c-2.11,37.07-4.01,73.43-6.27,109.77-7.94,127.45-16,254.88-24.03,382.33-9.16,145.48-18.37,290.95-27.49,436.42-5.35,85.36-11.46,170.69-15.65,256.11-4.97,101.17-76.03,170.52-177.44,170.56-284.42.1-568.85.1-853.27,0-101.44-.04-172.06-69.4-177.63-170.45-8.08-146.74-18.23-293.37-27.45-440.05-7.56-120.23-15.1-240.46-22.55-360.7-7.55-122.04-14.99-244.09-22.41-366.13-.33-5.36-.04-10.76-.04-17.87Z"/>
  <path class="cls-1" d="M958.5,396.94c-240.45,0-480.91,0-721.36,0-49.29,0-70.05-20.92-70.08-70.54-.02-30.73-.15-61.46.04-92.19.24-40.72,23.25-63.67,64.17-63.7,132.58-.11,265.16-.27,397.74.29,13.99.06,21.96-3.43,27.42-16.81,7.02-17.22,16.08-33.65,24.94-50.06,16.3-30.19,41.97-46.01,76.25-46.07,133.79-.26,267.57-.26,401.36,0,34.25.07,60,15.85,76.39,45.94,9.2,16.9,18.36,33.94,25.87,51.62,5.04,11.87,12.03,15.37,24.64,15.33,130.77-.45,261.55-.28,392.32-.28,50.94,0,71.57,20.41,71.6,70.81.02,28.32.02,56.64,0,84.96-.04,50.27-20.76,70.7-71.74,70.7-239.85,0-479.7,0-719.55,0Z"/>
</svg>