<?xml version="1.0" encoding="UTF-8"?>
<svg id="Layer_1" xmlns="http://www.w3.org/2000/svg" viewBox="0 0 1920 1920">
  <defs>
    <style>
      .cls-1 {
        fill: #362040;
      }
    </style>
  </defs>
  <path class="cls-1" d="M1456.66,706.28v-101.04c0-274.3-222.36-496.66-496.66-496.66s-496.66,222.36-496.66,496.66v101.04c-129.13,56.36-212.67,183.78-212.85,324.67v425.71c.23,195.83,158.93,354.52,354.75,354.76h709.51c195.83-.23,354.52-158.93,354.76-354.76v-425.71c-.18-140.89-83.72-268.32-212.85-324.67ZM1030.95,1314.76c0,39.19-31.77,70.95-70.95,70.95s-70.95-31.77-70.95-70.95v-141.9c0-39.19,31.77-70.95,70.95-70.95s70.95,31.77,70.95,70.95v141.9ZM1314.76,676.2h-709.51v-70.95c0-195.93,158.83-354.76,354.76-354.76s354.76,158.83,354.76,354.76v70.95Z"/>
</svg>