<?xml version="1.0" encoding="UTF-8"?>
<svg id="Layer_1" xmlns="http://www.w3.org/2000/svg" viewBox="0 0 1920 1920">
  <defs>
    <style>
      .cls-1 {
        fill: #362040;
      }
    </style>
  </defs>
  <path class="cls-1" d="M172.89,1734.12c.04-54.15-1.78-108.38.49-162.44,6.14-145.97,59.28-273.36,158.17-380.76,94.77-102.93,212.19-164.88,350.4-186.95,26.23-4.19,52.73-6.37,79.38-6.35,130.1.07,260.2-.21,390.29.1,132.41.31,251.89,40.58,357.14,120.5,125.42,95.23,202.13,221.2,230.63,376.19,5.56,30.24,8.4,60.86,8.37,91.68-.04,49.35-.01,98.69-.01,148.04H172.89Z"/>
  <path class="cls-1" d="M961.18,836.12c-179.8,0-324.59-145.13-325.12-324.36-.53-181.33,149.77-330.77,334.47-325.77,175.48,4.75,320.98,151.77,315.88,334.64-4.88,175.01-149.76,316.74-325.24,315.49h.01Z"/>
</svg>