<?xml version="1.0" encoding="UTF-8"?>
<svg id="Layer_1" xmlns="http://www.w3.org/2000/svg" viewBox="0 0 1920 1920">
  <defs>
    <style>
      .cls-1 {
        fill: #fff;
      }
    </style>
  </defs>
  <path class="cls-1" d="M946.18,1544.65c80.42-106.45,159.91-211.67,242.54-321.05v129.24c3.46,1.26,5.07,2.37,6.67,2.37,151.96.18,303.93,1.65,455.87-.15,82.58-.98,160.1-21.02,223.14-80.84-2.74,5.71-5.26,11.54-8.26,17.11-63.12,117.27-127.64,233.81-188.78,352.1-22.96,44.41-57.86,71.13-101.59,88.92-53.3,21.69-109.43,31.31-166.76,33.69-68.41,2.83-136.84,5.14-205.25,7.73-4.1.15-8.18.77-13.72,1.32v84.66c-1.4.67-2.8,1.34-4.19,2.01-79.53-105.22-159.06-210.45-239.66-317.1Z"/>
  <path class="cls-1" d="M1056.95,683.4c38.12-20.69,74.37-40.36,111.8-60.68-2.5-5.59-4.31-10.44-6.74-14.95-68.52-127.39-136.32-255.18-206-381.93-34.89-63.46-79.56-118.93-147.22-151.02-13.4-6.35-27.71-10.76-45.66-17.62,10.74,0,17.52,0,24.3,0,134.62-.12,269.26,1.15,403.84-1.06,51.32-.84,91.97,18.5,129.22,49.78,44.67,37.5,79.62,83.21,109.28,133.07,33.15,55.72,65.87,111.7,98.82,167.54,2.98,5.06,6.3,9.91,10.34,16.23,24.97-13.34,49.11-26.24,77.05-41.16-2.37,7.75-3.17,11.98-4.9,15.79-51.03,111.92-102.26,223.74-153.05,335.76-4.4,9.71-9.22,13.35-20.25,11.63-125.15-19.51-250.38-38.55-375.57-57.78-.97-.15-1.8-1.19-5.25-3.59Z"/>
  <path class="cls-1" d="M677.88,1053.59c-39.66-23.99-75.47-45.65-112.66-68.15-4.04,6.2-7.68,11.46-11,16.91-74.27,122.01-148.84,243.84-222.58,366.16-29.36,48.71-51.42,100.86-55.69,158.16-2.19,29.45,1.64,59.34,2.64,85.91-.98-1.54-4.56-6.77-7.77-12.22-68.15-115.86-134.95-232.56-205.04-347.24-27.55-45.08-31.01-90.97-22.15-140.07,10.01-55.43,30.88-107.01,57.95-156.15,34.43-62.5,69.18-124.83,104.74-188.96-24.6-14.99-48.51-29.57-77.27-47.09,21.98-2.67,39.1-5.01,56.29-6.78,108.09-11.15,216.21-21.93,324.25-33.5,15.03-1.61,21.73,2.62,27.38,17.11,43.81,112.28,88.69,224.14,133.23,336.13,1.97,4.95,3.85,9.94,7.66,19.78Z"/>
  <path class="cls-1" d="M795.52,1762.63c-73.18,0-144.04-.79-214.87.3-41.34.64-79.32-9.92-116.42-26.65-100.4-45.27-129.21-132.52-105.64-232.89,13.54-57.65,45.32-106.86,79.55-154.27,2.85-3.95,9.73-7.21,14.67-7.12,112.97,1.99,225.93,4.48,338.89,6.97,3.47.08,6.91,1.18,11.72,2.06-2.65,137.91-5.28,275.34-7.9,411.6Z"/>
  <path class="cls-1" d="M379.93,411.04c3.39-6.04,5.84-10.72,8.58-15.23,38.07-62.54,73.91-126.59,114.94-187.13,38.6-56.97,92.22-96.23,162.67-105.49,62.78-8.25,113.93,19.75,157.79,60.26,44.8,41.37,72.08,95.43,96.53,150.54,1.78,4.02,1.13,10.9-1.21,14.72-60.71,99.3-121.8,198.37-184.2,299.72-118.59-72.6-236.42-144.74-355.1-217.39Z"/>
  <path class="cls-1" d="M1728.17,757.69c42.29,72.52,86.43,141.42,123.44,213.96,26.63,52.18,34.05,111.01,16.3,168.41-25.43,82.2-89.95,121.12-169.41,134.33-45.67,7.59-93.19,4.3-139.89,5.04-5.22.08-12.84-4.12-15.45-8.6-57.95-99.58-115.35-199.49-172.81-299.35-.56-.98-.55-2.29-1.19-5.23,118.7-68.95,237.86-138.17,359-208.55Z"/>
</svg>