<?xml version="1.0" encoding="UTF-8"?>
<svg xmlns="http://www.w3.org/2000/svg" version="1.1" viewBox="0 0 1920 1920">
  <defs>
    <style>
      .cls-1, .cls-2 {
        fill: #fff;
      }

      .cls-3 {
        fill: #006837;
      }

      .cls-3, .cls-2 {
        stroke: #006837;
        stroke-miterlimit: 10;
        stroke-width: 2px;
      }
    </style>
  </defs>
  <!-- Generator: Adobe Illustrator 28.6.0, SVG Export Plug-In . SVG Version: 1.2.0 Build 709)  -->
  <g>
    <g id="Layer_1">
      <path class="cls-3" d="M1876.5,960c0,205.8-67.8,395.8-182.4,548.8-167.2,223.2-433.8,367.7-734.1,367.7s-566.3-144.1-733.5-366.9c-114.9-153.1-183-343.4-183-549.6,0-506.1,410.4-916.5,916.5-916.5s916.5,410.4,916.5,916.5Z"/>
      <g>
        <path class="cls-1" d="M1694.1,1512.8c-167.2,223.2-433.8,367.7-734.1,367.7s-566.3-144.1-733.5-366.9c15.5-21.5,32.6-42.2,51.2-62.3,102.9-111.8,230.4-179,380.5-203,28.5-4.6,57.3-6.9,86.2-6.8,141.3,0,282.6-.2,423.8,0,143.8.3,273.5,44,387.7,130.8,54.7,41.5,100.7,88.4,138.4,140.5h0Z"/>
        <path class="cls-2" d="M961.3,1062c-195.2,0-352.4-157.6-353-352.2-.6-196.9,162.6-359.1,363.1-353.7,190.5,5.1,348.5,164.8,343,363.3-5.3,190-162.6,343.9-353.1,342.5h0Z"/>
      </g>
    </g>
  </g>
</svg>