<?xml version="1.0" encoding="UTF-8"?>
<svg xmlns="http://www.w3.org/2000/svg" version="1.1" viewBox="0 0 1885 701.7">
  <defs>
    <style>
      .cls-1 {
        fill: #00733d;
      }

      .cls-2 {
        fill: #fff;
      }

      .cls-3 {
        fill: #37b34a;
      }
    </style>
  </defs>
  <!-- Generator: Adobe Illustrator 28.6.0, SVG Export Plug-In . SVG Version: 1.2.0 Build 709)  -->
  <g>
    <g id="Layer_1">
      <path class="cls-2" d="M707.9,497.2c-54.4-39.4-83.9-255.2-83.9-255.2-12.7-4.7-20.9-9.7-24.7-15l27.6-113.9h51.2l33.3,113.9c-4.1,5.6-11.6,10.3-22.5,14.1l37.5,130.7c6.2,20.3,10,39,11.5,56.1l.4,7.5h6.2c.3-18,4-38.8,11-62.7l39.3-131.1c-11.2-3.8-19-8.7-23.4-14.6l32.9-113.9h53l23.6,113.9c-5.3,6.5-15.2,12.1-29.6,16.8,0,0-32.8,209.6-83,253.4-11.4,10-48.2,8.9-60.5,0h0Z"/>
      <path class="cls-2" d="M944.3,430.8c-26.8,0-46.9-7.1-60.3-21.4-13.5-14.3-19.6-35-19.6-62.2s2.3-30.7,7-42.6c4.7-11.9,10.4-21.1,18.4-27.6,15.6-12.5,33.8-18.7,54.5-18.7s36.6,5.3,47.6,15.9c11,10.6,17.2,29.6,17.2,57s-8.6,24.1-24.4,24.1h-72.5c.9,14,4.5,24,10.9,29.8,6.3,5.8,16.4,8.7,30.3,8.7s14.8-.9,21.7-2.7c6.9-1.8,11.9-3.6,15.1-5.3l4.7-2.7,10,26.8c-1.3,1.6-3.3,3.5-5.8,5.8-2.6,2.3-9,5.5-19.4,9.4-10.4,3.9-22.1,5.8-35.3,5.8h0ZM965.4,325.4c.4-3.1.7-6.9.7-11.4s-1.8-9.2-5.3-14.2c-3.6-5-9.8-7.5-18.6-7.5s-15.5,2.7-20.2,8c-4.7,5.3-7.8,14.4-9.4,27.1l52.8-2h0Z"/>
      <path class="cls-2" d="M1126.5,302c-16.9,0-28.6,3.2-35.1,9.7v76.6c18.1,3.3,30.4,8,37.1,14l-3.3,25.7h-95.6l-3.3-25.7c3.1-4.2,9.2-8,18.4-11.4v-93c-7.8-2.7-13.9-6.5-18.4-11.4l3.3-25.7c12.3-2.7,23.3-4,33.1-4s17.9.2,24.4.7v21.1c5.1-6,11.7-11,19.7-14.9,8-3.9,15.3-5.9,21.9-5.9s11.1.6,13.5,1.7l-1,43.5c-4.5-.7-9.4-1-14.7-1h0Z"/>
      <path class="cls-2" d="M1148.9,190.7c12.5-2.9,24.1-4.4,34.8-4.4s19.7.3,27.1,1v83.6c4.7-3.3,10.9-6.3,18.7-8.9,7.8-2.6,15.3-3.8,22.4-3.8,24.3,0,41.3,6.2,51.2,18.7,9.8,12.5,14.7,33.8,14.7,63.9s-2.3,31.2-6.8,43.3c-4.6,12.2-10.8,21.5-18.6,27.9-14.7,12.5-32.1,18.7-52.2,18.7s-30.1-3.8-44.8-11.4c-4.2,5.8-9.1,8.7-14.7,8.7h-16.7v-200.3c-7.8-2.7-13.9-6.5-18.4-11.4l3.3-25.7h0ZM1237.5,396.6c21.4,0,32.1-17.9,32.1-53.8s-1.8-31.8-5.5-38.6c-3.7-6.8-10.1-10.2-19.2-10.2-13.8,0-25.2,3.7-34.1,11v85.9c9.6,3.8,18.5,5.7,26.8,5.7h0Z"/>
      <path class="cls-2" d="M1415.7,430.8c-26.8,0-46.9-7.1-60.3-21.4-13.5-14.3-20.2-35-20.2-62.2s2.3-30.7,7-42.6c4.7-11.9,11-21.1,19.1-27.6,15.6-12.5,33.8-18.7,54.5-18.7s36.6,5.3,47.6,15.9c11,10.6,16.6,29.6,16.6,57s-7.9,24.1-23.7,24.1h-72.6c.9,14,4.5,24,10.9,29.8,6.3,5.8,16.4,8.7,30.3,8.7s14.8-.9,21.7-2.7c6.9-1.8,11.9-3.6,15.1-5.3l4.7-2.7,10,26.8c-1.3,1.6-3.3,3.5-5.8,5.8-2.6,2.3-9,5.5-19.4,9.4-10.4,3.9-22.1,5.8-35.3,5.8h0ZM1436.8,325.4c.4-3.1.7-6.9.7-11.4s-1.8-9.2-5.3-14.2c-3.6-5-9.8-7.5-18.6-7.5s-15.6,2.7-20.2,8c-4.7,5.3-7.8,14.4-9.4,27.1l52.8-2h0Z"/>
      <path class="cls-2" d="M1500.3,260.9c12.3-2.7,23.3-4,33.1-4s17.9.2,24.4.7v16.7c5.6-4.7,13-8.5,22.2-11.5,9.2-3,18.1-4.5,26.6-4.5,21.8,0,37.2,5.1,46,15.4,8.8,10.2,13.2,28,13.2,53.2v64.2c8.7,3.3,14.8,7.1,18.4,11.4l-3.3,25.7h-76.9l-3.3-25.7c3.1-4.2,9.2-8,18.4-11.4v-66.2c0-12-1.9-20.1-5.8-24.2-3.9-4.1-10.9-6.2-20.9-6.2s-20.1,3.6-30.1,10.7v85.9c8.7,3.3,14.8,7.1,18.4,11.4l-3.3,25.7h-76.9l-3.3-25.7c3.1-4.2,9.2-8,18.4-11.4v-93c-7.8-2.7-13.9-6.5-18.4-11.4l3.3-25.7h0Z"/>
      <path class="cls-2" d="M1702.6,285.6c0-3.3.1-6.9.3-10.7,20.7-11.1,43-16.7,66.9-16.7s41,4.5,51.3,13.5c10.4,9,15.6,24,15.6,45v71.2c7.8,1.6,13.9,3.5,18.4,5.7v29.1c-11.4,5.3-27.6,8-48.8,8-2.2-5.8-4.1-12.8-5.7-21.1-9.6,14-27,21.1-52.2,21.1s-27.7-4.3-38.3-13c-10.6-8.7-15.9-20.5-15.9-35.4s5-26.7,14.9-35.3,24.7-12.9,44.3-12.9h36.4v-16c0-17.4-9.2-26.1-27.8-26.1s-12.6.7-17.1,2c-.4,9.4-1.8,16.6-4,21.7h-32.8c-3.8-7.8-5.7-17.8-5.7-30.1h0ZM1762.8,396.6c11.4,0,20.4-3.3,27.1-10v-27.4h-23.4c-16.1,0-24.1,6.1-24.1,18.4s1.7,10.2,5.2,13.7c3.4,3.6,8.5,5.3,15.2,5.3Z"/>
      <path class="cls-2" d="M575.8,298.3c0,122.1-76,226.4-183.3,268.3-2,.8-4,1.5-6.1,2.3-.5.2-.9.3-1.4.5-30.4,10.9-63.1,16.8-97.2,16.8s-18.7-.5-27.9-1.3c-1.9-.2-3.9-.4-5.8-.6-5-.6-10-1.3-14.9-2.1C103.5,559,0,440.7,0,298.3S128.9,10.5,287.9,10.5s287.9,128.9,287.9,287.9Z"/>
      <path class="cls-3" d="M211.7,448s-68.9-143.8-28-239.6c0,0-19.1-131.3,9.3-147.1,0,0,52.6,12.2,95.7,112.8,0,0,86.8,60.5,91.1,150.3,0,0-19.9,120.2-60.6,150-40.6,29.9-107.6-26.5-107.6-26.5h0Z"/>
      <path class="cls-1" d="M402.2,554.4l-9.6,22.9c-2,.8-4,1.6-6.1,2.3-.5.2-.9.3-1.4.5-30.4,11.2-63.1,17.3-97.2,17.3s-18.7-.5-27.9-1.4c-1.9-.2-3.9-.4-5.8-.6-5-.6-10-1.3-14.9-2.2-39.6-42.5-76.1-110.8-84.8-220,0,0,99.9-2.1,128.8,57.2-4.6-38.8-6.6-100,11.3-165.6,0,0,57.8-3.3,82.6,75.1-7.4-55.2-8-141,53.7-166.5,0,0,86.7,57.4-28.7,381h0Z"/>
    </g>
  </g>
</svg>